<svg xmlns="http://www.w3.org/2000/svg" xmlns:xlink="http://www.w3.org/1999/xlink" width="788" height="388" viewBox="0 0 788 388">
  <defs>
    <linearGradient id="linear-gradient" x1="0.5" x2="0.5" y2="1" gradientUnits="objectBoundingBox">
      <stop offset="0" stop-color="#00ff2b"/>
      <stop offset="1" stop-color="#003380"/>
    </linearGradient>
    <linearGradient id="linear-gradient-2" x1="0.186" y1="-0.24" x2="0.5" y2="1" gradientUnits="objectBoundingBox">
      <stop offset="0" stop-color="#00ff2b"/>
      <stop offset="1" stop-color="#28ff00"/>
    </linearGradient>
    <linearGradient id="linear-gradient-3" x1="1" y1="-0.497" x2="0" y2="1" gradientUnits="objectBoundingBox">
      <stop offset="0" stop-color="#28ff00"/>
      <stop offset="1" stop-color="#00ff2b"/>
    </linearGradient>
    <linearGradient id="linear-gradient-4" x1="0" y1="0" x2="1" xlink:href="#linear-gradient-2"/>
    <linearGradient id="linear-gradient-5" x1="0.5" x2="1" y2="0.857" gradientUnits="objectBoundingBox">
      <stop offset="0" stop-color="red"/>
      <stop offset="1" stop-color="#ff0057"/>
    </linearGradient>
    <linearGradient id="linear-gradient-6" x1="0.448" y1="0.632" x2="0.173" y2="0.869" gradientUnits="objectBoundingBox">
      <stop offset="0" stop-color="#fff" stop-opacity="0"/>
      <stop offset="0.488" stop-color="#e2e2e2" stop-opacity="0.302"/>
      <stop offset="1" stop-color="#a7a7a7"/>
    </linearGradient>
    <clipPath id="clip-Camly_-_SVG">
      <rect width="788" height="388"/>
    </clipPath>
  </defs>
  <g id="Camly_-_SVG" data-name="Camly - SVG" clip-path="url(#clip-Camly_-_SVG)">
    <g id="Group_9" data-name="Group 9" transform="translate(-1012 -356)">
      <g id="Group_6" data-name="Group 6" transform="translate(118.612 4.269)">
        <g id="Group_5" data-name="Group 5" transform="translate(935.244 384.005)">
          <path id="Path_6" data-name="Path 6" d="M1021.682,608.222c-36.5,27.286-46.8,75.222-46.8,75.222s48.889,3.7,85.391-23.587,46.794-75.221,46.794-75.221S1058.184,580.937,1021.682,608.222Z" transform="translate(-390.929 -416.801)" fill="#3f3d56"/>
          <path id="Path_7" data-name="Path 7" d="M932.635,645.379s-.536-.3-1.505-.895c-.773-.475-1.835-1.139-3.117-1.986-11.471-7.558-41.185-29.789-53.372-64.089-15.248-42.946,2.757-88.548,2.757-88.548s39.277,22.081,55.962,61.742c.727,1.708,1.4,3.451,2.033,5.228,13.269,37.367,1.36,76.745-1.956,86.343C932.937,644.611,932.635,645.379,932.635,645.379Z" transform="translate(-348.649 -379.199)" fill="url(#linear-gradient)"/>
          <path id="Path_9" data-name="Path 9" d="M969.091,683.9c-.89.518-1.668.955-2.306,1.311-1.407.768-2.187,1.156-2.187,1.156s-.369-1.11-.93-3.142c-3.09-11.114-11.938-49.848,2.87-85.425q1.168-2.8,2.477-5.471c.727,1.708,1.4,3.451,2.033,5.228C984.315,634.924,972.407,674.3,969.091,683.9Z" transform="translate(-384.303 -419.926)" opacity="0.1"/>
          <path id="Path_10" data-name="Path 10" d="M1033.091,586.659c-17.51,42.077-61.458,63.806-61.458,63.806s-15.57-46.491,1.935-88.568,61.456-63.805,61.456-63.805S1050.6,544.583,1033.091,586.659Z" transform="translate(-387.099 -382.471)" fill="url(#linear-gradient-2)"/>
          <rect id="Rectangle_2" data-name="Rectangle 2" width="161.904" height="1.205" transform="translate(584.402 266.542) rotate(-67.243)" fill="#fff"/>
          <path id="Path_11" data-name="Path 11" d="M715.223,756.583c0,5.643-32.458,10.8-86.122,14.765-9.757.718-20.216,1.4-31.3,2.035q-14.379.826-30.132,1.553-15.268.693-31.7,1.288c-34.608,1.258-72.861,2.163-113.5,2.615q-14.791.162-29.986.256-15.817.089-32,.089c-195.923,0-354.747-10.116-354.747-22.6s158.824-22.6,354.747-22.6c84.346,0,161.81,1.878,222.691,5q3.361.177,6.655.344a.069.069,0,0,0,.043.01C666.556,743.489,715.223,749.672,715.223,756.583Z" transform="translate(-5.729 -476.227)" fill="#3f3d56"/>
          <path id="Path_12" data-name="Path 12" d="M715.223,756.583c0,5.643-32.458,10.8-86.122,14.765-9.757.718-20.216,1.4-31.3,2.035q-14.379.826-30.132,1.553-15.268.693-31.7,1.288c-34.608,1.258-72.861,2.163-113.5,2.615q-14.791.162-29.986.256-15.817.089-32,.089c-195.923,0-354.747-10.116-354.747-22.6s158.824-22.6,354.747-22.6c84.346,0,161.81,1.878,222.691,5q3.361.177,6.655.344a.069.069,0,0,0,.043.01C666.556,743.489,715.223,749.672,715.223,756.583Z" transform="translate(-5.729 -476.227)" opacity="0.15"/>
          <path id="Path_13" data-name="Path 13" d="M701.67,752.426c0,4.718-30.26,9.032-80.289,12.346-9.092.6-18.847,1.163-29.181,1.7q-13.4.687-28.091,1.3-14.235.587-29.555,1.078c-32.266,1.054-67.931,1.808-105.818,2.187q-13.783.136-27.952.211-14.75.081-29.832.078c-182.655,0-330.723-8.46-330.723-18.9s148.069-18.9,330.723-18.9c40.388,0,79.084.416,114.862,1.175h.09c33.839.717,65.068,1.741,92.653,3.013q3.136.145,6.206.283a.057.057,0,0,0,.042.012c12.635.615,24.457,1.277,35.351,1.988.121.006.241.018.362.024C671.067,743.345,701.67,747.678,701.67,752.426Z" transform="translate(-19.442 -476.047)" fill="#3f3d56"/>
          <path id="Path_14" data-name="Path 14" d="M914.142,740.776c-4.477,29.109-32.706,19.354-66.864,19.354-36.086,0-65.55,10.888-67.388-24.65,33.839.717,65.068,1.741,92.653,3.013q3.136.145,6.206.283a.057.057,0,0,0,.042.012C891.429,739.4,903.251,740.065,914.142,740.776Z" transform="translate(-313.426 -476.822)" opacity="0.1"/>
          <path id="Path_15" data-name="Path 15" d="M304.628,713.845c0,10.494-6.238,14.158-13.934,14.158-.178,0-.357,0-.534-.006-.357-.008-.71-.024-1.059-.049-6.946-.491-12.341-4.344-12.341-14.1,0-10.1,12.9-22.842,13.876-23.787h0l.056-.055S304.628,703.352,304.628,713.845Z" transform="translate(-113.453 -458.747)" fill="url(#linear-gradient-3)"/>
          <path id="Path_16" data-name="Path 16" d="M295.349,726.4l5.1-7.12-5.109,7.9-.013.817c-.357-.008-.71-.024-1.059-.049l.549-10.5,0-.082.009-.014.053-.993-5.122-7.922,5.138,7.178.013.21.414-7.932-4.385-8.186,4.439,6.794.432-16.446v0l-.072,12.968,4.366-5.141-4.383,6.259-.115,7.1,4.077-6.816-4.094,7.862-.064,3.949,5.916-9.488-5.939,10.865Z" transform="translate(-118.615 -458.747)" fill="#3f3d56"/>
          <path id="Path_17" data-name="Path 17" d="M779.734,669.7c0-39.933,30.214-72.3,67.485-72.3S914.7,629.765,914.7,669.7s-30.214,28.32-67.485,28.32S779.734,709.631,779.734,669.7Z" transform="translate(-313.364 -421.939)" fill="#3f3d56"/>
          <rect id="Rectangle_3" data-name="Rectangle 3" width="1.205" height="81.452" transform="translate(91.218 200.121)" fill="#3f3d56"/>
          <circle id="Ellipse_2" data-name="Ellipse 2" cx="11.518" cy="11.518" r="11.518" transform="translate(80.302 188.603)" fill="#3f3d56"/>
          <path id="Path_18" data-name="Path 18" d="M134.781,700.795S133.136,665.4,99.4,669.518" transform="translate(-42.961 -450.473)" fill="#3f3d56"/>
          <path id="Path_20" data-name="Path 20" d="M104.628,739.845c0,10.494-6.238,14.158-13.934,14.158-.178,0-.357,0-.534-.006-.357-.008-.71-.024-1.059-.049-6.946-.491-12.341-4.344-12.341-14.1,0-10.1,12.9-22.842,13.876-23.787h0l.056-.055S104.628,729.352,104.628,739.845Z" transform="translate(-33.961 -469.081)" fill="url(#linear-gradient-4)"/>
          <path id="Path_21" data-name="Path 21" d="M95.349,752.4l5.1-7.12-5.109,7.9-.013.817c-.357-.008-.71-.024-1.059-.049l.549-10.5,0-.082.009-.014.053-.993-5.122-7.922,5.138,7.178.013.21.414-7.932-4.385-8.186,4.439,6.794.432-16.446v0l-.072,12.968,4.365-5.141-4.383,6.259-.115,7.1,4.077-6.816-4.094,7.861-.064,3.949,5.916-9.488-5.939,10.865Z" transform="translate(-39.123 -469.081)" fill="#3f3d56"/>
          <path id="Path_22" data-name="Path 22" d="M757.562,466.675s21.859-4.839,24.269,14.442-11.609,22.921-11.609,22.921l-8.878,2.386L727,497.385l4.82-13.858Z" transform="translate(-292.404 -369.769)" fill="#2f2e41"/>
          <circle id="Ellipse_4" data-name="Ellipse 4" cx="29.539" cy="29.539" r="29.539" transform="translate(427.743 38.893)" fill="#272727"/>
          <path id="Path_24" data-name="Path 24" d="M351.456,724.413a117.892,117.892,0,0,0,5.965,15.574,145.323,145.323,0,0,0,19.912-5.674,56.233,56.233,0,0,0-4.136-5.625,19.887,19.887,0,0,0-5.623-4.325c-2.073-.9-4.626-.214-6.845-.1Q356.1,724.5,351.456,724.413Z" transform="translate(-143.141 -472.222)" fill="#fbbebe"/>
          <path id="Path_25" data-name="Path 25" d="M333.822,726.9c-3.383-1.059-5.439-4.463-6.815-7.745s-2.486-6.862-5.1-9.271a3.049,3.049,0,0,0-2.3,1.735c-.495.875-.789,1.862-1.361,2.688-1.089,1.573-3,2.333-4.37,3.667-1.435,1.4-2.219,3.376-3.7,4.72-1.865,1.688-4.5,2.107-6.949,2.665a44.566,44.566,0,0,0-10.875,4.032,18.258,18.258,0,0,1-4.028,1.805,15.132,15.132,0,0,1-4.711.157l-10.82-.771a8.451,8.451,0,0,0-2.888.126,5.253,5.253,0,0,0-3.442,5.423,8.452,8.452,0,0,0,3.424,5.822,22.793,22.793,0,0,0,6.162,3.122,182.6,182.6,0,0,0,29.011,8.287l.005,2.142a50.106,50.106,0,0,0,22.084,5.142,3.434,3.434,0,0,0,1.653-.286,3.549,3.549,0,0,0,1.392-2.12,85.845,85.845,0,0,0,4.513-23.522,17.855,17.855,0,0,0-.466-6.059c-.589-1.948,1.44-1.129-.438-1.892" transform="translate(-109.354 -466.649)" fill="#2f2e41"/>
          <path id="Path_26" data-name="Path 26" d="M582.19,664.8c-32.079,1.921-63.786-7.469-95.906-8.473a47.6,47.6,0,0,0-11.929.76c-4.125.926-7.97,2.793-11.806,4.577-17.227,8.015-35.049,14.654-52.849,21.284l-20.447,7.616c-4.086,1.522-8.32,3.067-12.67,2.8-1.95-.119-4.343-.414-5.44,1.211-3.326,4.928-1.755,12.169.443,17.7.713,1.8,1.92,3.732,3.832,3.936,1.346.144,2.6-.635,3.905-.986,3.722-1,7.433,1.507,11.263,1.914,4.732.5,9.127-2.192,13.593-3.843,7.408-2.738,15.508-2.652,23.294-3.949,13.056-2.174,25.157-8.237,36.469-15.144,4.307-2.63,8.666-5.448,13.614-6.41,5.689-1.106,11.533.36,17.112,1.938A395.226,395.226,0,0,1,533.9,703.1c6.757,2.7,13.466,5.6,20.5,7.474a74.111,74.111,0,0,0,45.937-2.678c5.135-2.029,10.714-5.617,11.008-11.156.168-3.159-2.282-5.941-3.919-8.642-1.05-1.732-2.1-3.465-3.243-5.136C598.647,674.871,591.934,664.22,582.19,664.8Z" transform="translate(-150.204 -445.341)" fill="#2f2e41"/>
          <path id="Path_27" data-name="Path 27" d="M582.19,664.8c-32.079,1.921-63.786-7.469-95.906-8.473a47.6,47.6,0,0,0-11.929.76c-4.125.926-7.97,2.793-11.806,4.577-17.227,8.015-35.049,14.654-52.849,21.284l-20.447,7.616c-4.086,1.522-8.32,3.067-12.67,2.8-1.95-.119-4.343-.414-5.44,1.211-3.326,4.928-1.755,12.169.443,17.7.713,1.8,1.92,3.732,3.832,3.936,1.346.144,2.6-.635,3.905-.986,3.722-1,7.433,1.507,11.263,1.914,4.732.5,9.127-2.192,13.593-3.843,7.408-2.738,15.508-2.652,23.294-3.949,13.056-2.174,25.157-8.237,36.469-15.144,4.307-2.63,8.666-5.448,13.614-6.41,5.689-1.106,11.533.36,17.112,1.938A395.226,395.226,0,0,1,533.9,703.1c6.757,2.7,13.466,5.6,20.5,7.474a74.111,74.111,0,0,0,45.937-2.678c5.135-2.029,10.714-5.617,11.008-11.156.168-3.159-2.282-5.941-3.919-8.642-1.05-1.732-2.1-3.465-3.243-5.136C598.647,674.871,591.934,664.22,582.19,664.8Z" transform="translate(-150.204 -445.341)" opacity="0.1"/>
          <path id="Path_28" data-name="Path 28" d="M453.673,718.544q7.532,2.571,15.2,4.727c2.86-4.7,8.211-7.964,9.43-13.332a1.172,1.172,0,0,0,0-.719,1.21,1.21,0,0,0-.575-.515,28.3,28.3,0,0,0-11.9-3.487c-3.3-.208-4.8,3.234-6.3,5.654C458.924,711.852,455.017,719,453.673,718.544Z" transform="translate(-183.768 -464.791)" fill="#fbbebe"/>
          <path id="Path_29" data-name="Path 29" d="M432.635,716.594a10.944,10.944,0,0,1-7.382-4.854c-.709-1.236-1.464-2.9-2.88-2.809-1.315.086-1.919,1.655-2.214,2.946a83.778,83.778,0,0,1-4.141,14.265,26.712,26.712,0,0,1-8.878,11.661c-1.861,1.294-3.935,2.261-5.754,3.614-1.634,1.216-3.059,2.74-4.864,3.681a27.452,27.452,0,0,1-3.73,1.391,25.27,25.27,0,0,0-5.342,2.6,10.747,10.747,0,0,0-3.638,3.476,5.1,5.1,0,0,0-.3,4.865,5.264,5.264,0,0,0,3.561,2.439,15.244,15.244,0,0,0,4.426.111c5.849-.431,11.691-.952,17.533-1.472a50.288,50.288,0,0,0,7.349-1.022c1.28-.309,2.534-.718,3.808-1.046a31.411,31.411,0,0,1,6.68-.973,5.6,5.6,0,0,1,1.949.178c1.353.442,2.314,1.789,3.711,2.062a5.89,5.89,0,0,0,2.642-.353c4.209-1.151,8.632-1.12,12.987-1.355,1.919-.1,4.165-.468,5.046-2.186,1.1-2.142-.723-4.538-1.448-6.834a20.927,20.927,0,0,1-.6-4.482,27.444,27.444,0,0,0-3.221-10.656c-1.489-2.734-3.522-5.757-2.475-8.691.355-1,1.061-1.923.991-2.978C446.136,715.536,435.323,717.158,432.635,716.594Z" transform="translate(-155.691 -466.269)" fill="#2f2e41"/>
          <path id="Path_30" data-name="Path 30" d="M624.938,566.379a25.106,25.106,0,0,1-12.782-12.7c-.536-1.218-.976-2.49-1.492-3.719a28.259,28.259,0,0,0-7.639-10.609,3.691,3.691,0,0,0-2.836-1.2,3.052,3.052,0,0,0-2.086,2.234,9.111,9.111,0,0,0-.212,3.428,61.371,61.371,0,0,0,1.39,8.018l1.555,7.084a13.569,13.569,0,0,0,.968,3.162,11.137,11.137,0,0,0,2.61,3.122q2.13,1.962,4.329,3.819a12.1,12.1,0,0,0,7.507,3.338c6.37,1.181,12.85,2.883,18.225,7.04-.06-.046-.023-4.751-.116-5.291-.246-1.425-.438-2.837-1.365-3.8C630.911,568.144,627.477,567.508,624.938,566.379Z" transform="translate(-241.059 -398.382)" fill="#fbbebe"/>
          <path id="Path_31" data-name="Path 31" d="M624.938,566.379a25.106,25.106,0,0,1-12.782-12.7c-.536-1.218-.976-2.49-1.492-3.719a28.259,28.259,0,0,0-7.639-10.609,3.691,3.691,0,0,0-2.836-1.2,3.052,3.052,0,0,0-2.086,2.234,9.111,9.111,0,0,0-.212,3.428,61.371,61.371,0,0,0,1.39,8.018l1.555,7.084a13.569,13.569,0,0,0,.968,3.162,11.137,11.137,0,0,0,2.61,3.122q2.13,1.962,4.329,3.819a12.1,12.1,0,0,0,7.507,3.338c6.37,1.181,12.85,2.883,18.225,7.04-.06-.046-.023-4.751-.116-5.291-.246-1.425-.438-2.837-1.365-3.8C630.911,568.144,627.477,567.508,624.938,566.379Z" transform="translate(-241.059 -398.382)" opacity="0.1"/>
          <ellipse id="Ellipse_5" data-name="Ellipse 5" cx="7.802" cy="7.845" rx="7.802" ry="7.845" transform="translate(441.409 98.087)" fill="#2f2e41"/>
          <path id="Path_32" data-name="Path 32" d="M707.634,474.036c-2.118-.235-4.47-.409-6.167.887a8.422,8.422,0,0,0-2.11,2.873,41.593,41.593,0,0,0-4.061,9.558c-.7,2.863-.812,5.857-1.675,8.675-1.6,5.226-5.7,9.637-6.167,15.085-.21,2.438.2,5.292-1.58,6.962a10.445,10.445,0,0,1-1.4.994,10.608,10.608,0,0,0-3.071,3.158,10.185,10.185,0,0,1-2.181,3.016c-1.587,1.176-4.221,1.056-5,2.875-.8,1.869,1.236,3.95.763,5.93-.385,1.613-2.183,2.352-3.421,3.448-1.586,1.4-2.312,3.522-2.973,5.541a18.4,18.4,0,0,1-14.93-3.723c2.178,5.364,2.225,11.284,2.32,17.078.031,1.879-.028,3.989-1.37,5.3,6.211.133,12.27,1.816,18.331,3.186,2.649.6,5.525,1.119,8-.014a13.046,13.046,0,0,0,3.662-2.913c3.3-3.344,6.757-6.992,7.564-11.631.452-2.6.014-5.267.134-7.9a44.777,44.777,0,0,1,2-9.576,112.991,112.991,0,0,0,3.5-19.719c.359-4.112,3.911-7.422,5.78-11.1,3.53-6.938,7.137-14.163,7.4-21.951C711.069,477.47,710.21,474.322,707.634,474.036Z" transform="translate(-263.253 -372.844)" fill="#2f2e41"/>
          <path id="Path_33" data-name="Path 33" d="M707.634,474.036c-2.118-.235-4.47-.409-6.167.887a8.422,8.422,0,0,0-2.11,2.873,41.593,41.593,0,0,0-4.061,9.558c-.7,2.863-.812,5.857-1.675,8.675-1.6,5.226-5.7,9.637-6.167,15.085-.21,2.438.2,5.292-1.58,6.962a10.445,10.445,0,0,1-1.4.994,10.608,10.608,0,0,0-3.071,3.158,10.185,10.185,0,0,1-2.181,3.016c-1.587,1.176-4.221,1.056-5,2.875-.8,1.869,1.236,3.95.763,5.93-.385,1.613-2.183,2.352-3.421,3.448-1.586,1.4-2.312,3.522-2.973,5.541a18.4,18.4,0,0,1-14.93-3.723c2.178,5.364,2.225,11.284,2.32,17.078.031,1.879-.028,3.989-1.37,5.3,6.211.133,12.27,1.816,18.331,3.186,2.649.6,5.525,1.119,8-.014a13.046,13.046,0,0,0,3.662-2.913c3.3-3.344,6.757-6.992,7.564-11.631.452-2.6.014-5.267.134-7.9a44.777,44.777,0,0,1,2-9.576,112.991,112.991,0,0,0,3.5-19.719c.359-4.112,3.911-7.422,5.78-11.1,3.53-6.938,7.137-14.163,7.4-21.951C711.069,477.47,710.21,474.322,707.634,474.036Z" transform="translate(-263.253 -372.844)" opacity="0.1"/>
          <path id="Path_34" data-name="Path 34" d="M625.354,638.089c-6.681-3.179-11.57-9.106-16.972-14.179-10.313-9.684-22.924-16.539-33.767-25.618-7.188-6.018-13.616-13.026-21.514-18.064a53.552,53.552,0,0,0-23.041-8.073,6.489,6.489,0,0,0-2.822.141,6.68,6.68,0,0,0-2.623,2.074,82.045,82.045,0,0,0-9.287,12.771c-13.744,23.331-33.266,42.948-49.44,64.647a2.9,2.9,0,0,0-.193,3.917l3.29,6.447c1.841,3.608,4.791,7.81,8.76,7.093,1.814-.328,3.259-1.662,4.594-2.939l14.77-14.119,15.485-14.8c9.073-8.673,18.3-17.548,24.216-28.642,4.623,8.017,12.824,13.265,18.451,20.6,2.14,2.792,3.889,5.862,5.8,8.817,3.063,4.737,6.546,9.184,10.023,13.622l17.763,22.673c2.422,3.092,4.912,6.246,8.225,8.343,4.207,2.664,9.324,3.365,14.276,3.809a188.964,188.964,0,0,0,20.071.726c5.107-.087,10.374-.422,14.957-2.69s8.347-6.924,8.109-12.054a17.778,17.778,0,0,0-2.56-7.512C645.581,653.437,637.288,643.767,625.354,638.089Z" transform="translate(-188.281 -411.871)" fill="#2f2e41"/>
          <ellipse id="Ellipse_6" data-name="Ellipse 6" cx="6.002" cy="6.035" rx="6.002" ry="6.035" transform="translate(448.01 105.329)" fill="#2f2e41"/>
          <path id="Path_23" data-name="Path 23" d="M0,2.391,3.808,0,22.587,31.356l-3.8,2.757Z" transform="matrix(0.998, -0.07, 0.07, 0.998, 351.464, 128.207)" fill="#2f2e41"/>
          <path id="Path_35" data-name="Path 35" d="M751.6,471.047a11.442,11.442,0,0,1,.659,8.659,33.872,33.872,0,0,1-3.863,8,39.745,39.745,0,0,1-5.018,7.159c9.263.443,18.244-3.19,26.419-7.593,6.577-3.542,13.14-7.915,16.65-14.535a7.647,7.647,0,0,1-6.132-1.133,22.819,22.819,0,0,1-4.7-4.376l-4.651-5.232a20.876,20.876,0,0,1-2.86-3.755,10.555,10.555,0,0,1-1.228-6.069,34.689,34.689,0,0,1-6.154,5.107c-3.322,2.162-6.984,3.73-10.312,5.879-1.181.762-3.805,1.988-3.13,3.531C747.938,468.192,750.662,469.394,751.6,471.047Z" transform="translate(-298.913 -364.219)" fill="#fbbebe"/>
          <path id="Path_36" data-name="Path 36" d="M751.6,471.047a11.442,11.442,0,0,1,.659,8.659,33.872,33.872,0,0,1-3.863,8,39.745,39.745,0,0,1-5.018,7.159c9.263.443,18.244-3.19,26.419-7.593,6.577-3.542,13.14-7.915,16.65-14.535a7.647,7.647,0,0,1-6.132-1.133,22.819,22.819,0,0,1-4.7-4.376l-4.651-5.232a20.876,20.876,0,0,1-2.86-3.755,10.555,10.555,0,0,1-1.228-6.069,34.689,34.689,0,0,1-6.154,5.107c-3.322,2.162-6.984,3.73-10.312,5.879-1.181.762-3.805,1.988-3.13,3.531C747.938,468.192,750.662,469.394,751.6,471.047Z" transform="translate(-298.913 -364.219)" opacity="0.1"/>
          <path id="Path_37" data-name="Path 37" d="M733.117,484.3c-1.741,2.928-2.114,6.384,0,9.052.263.332,1.241,2.392,1.662,2.411a1.574,1.574,0,0,0,1.057-.535c2.25-2.057,3.9-4.68,5.874-7s4.47-4.44,7.474-4.908c3.626-.565,7.128,1.357,10.3,3.211A9.834,9.834,0,0,1,763,489.4a9.4,9.4,0,0,1,1.155,3.925c1.1,8.258,1.072,16.621,1.046,24.952-.019,6.023-.042,12.088-1.181,18-.589,3.056-1.473,6.056-1.891,9.14a61.365,61.365,0,0,0-.373,8.2l-.009,11.466a29.529,29.529,0,0,0,.445,6.287c.545,2.513,1.733,4.832,2.528,7.276a48,48,0,0,1,1.675,8.6l1.569,11.873c.494,3.739.859,7.83-1.4,10.84-1.022,1.361-2.365,2.45-3.4,3.8-3.881,5.055-2.636,12.267-4.255,18.442a23.112,23.112,0,0,1-7.528,11.539c-2.774,2.357-6.356,4.211-9.927,3.548-4.821-.9-7.717-5.922-9.031-10.671s-1.793-9.919-4.641-13.931c-2.325-3.276-5.928-5.337-9.186-7.675s-6.441-5.354-7.15-9.315c-.31-1.73-.117-3.512-.3-5.26a12.446,12.446,0,0,0-7.681-10.086c-2.468-.96-5.516-1.3-6.905-3.567,3.588-2.022,5.97-5.759,7.225-9.7a49.977,49.977,0,0,0,1.757-12.246l.824-13.8c.368-6.166.535-12.277,3.251-17.818,1.214-2.477,2.724-4.8,3.988-7.247a81.513,81.513,0,0,0,4.272-10.633c1.968-5.653,3.937-11.308,5.692-17.032a33.919,33.919,0,0,1,3.13-7.936C728.188,487.95,730.327,484.826,733.117,484.3Z" transform="translate(-280.305 -376.559)" fill="#ff005f"/>
          <path id="Path_38" data-name="Path 38" d="M706.13,572.407l3.649.132.778-5.517a11.564,11.564,0,0,1,.773-3.217,19.875,19.875,0,0,1,2.1-3.076c3.594-5.076,3.332-11.817,4.222-17.983,1.187-8.224,4.623-15.924,8.021-23.5l7.087-15.8a17.121,17.121,0,0,0,1.96-8.719c.063-2.442.786-11.327.849-13.769.023-.9-1.992-.4-2.4-1.207-.889-1.754-2.1,3-3.765,4.046s-2.576,2.934-3.281,4.77c-1.527,3.979-2.461,8.164-3.884,12.182s-3.414,7.966-6.616,10.763c-1.455,1.271-3.131,2.279-4.506,3.638-4.409,4.36-4.839,11.245-4.994,17.462C706.03,536.311,705.315,572.407,706.13,572.407Z" transform="translate(-283.956 -375.029)" fill="#2f2e41"/>
          <path id="Path_39" data-name="Path 39" d="M771.628,473.8c-3.546,1.394-5.49,5.24-6.487,8.935s-1.4,7.633-3.307,10.948c-4.452,7.749-15.8,10.007-18.945,18.381-1.028,2.74-.984,5.746-1.26,8.661-.57,6-2.542,11.8-3.126,17.8a77.656,77.656,0,0,0,.328,13.983l3.967,47.321c.573,6.835.558,14.178-1.188,20.808,4.017.784,8.193-.265,11.92-1.964s7.128-4.032,10.716-6.011c6.168-3.4,12.97-5.814,18.372-10.347a10.678,10.678,0,0,0,2.475-2.736c1.082-1.871,1.171-4.134,1.686-6.236a34.189,34.189,0,0,1,1.778-4.9,146.056,146.056,0,0,0,5.161-14.59,80.621,80.621,0,0,0,2.373-10.019c.433-2.7.667-5.422.9-8.144a48.726,48.726,0,0,1,2.519-12.508,100.215,100.215,0,0,0,5.794-29.974,15.143,15.143,0,0,0-.3-4.413,24.046,24.046,0,0,0-2.4-5.005c-1.649-3.106-2.639-6.524-4.195-9.677-3.516-7.126-9.726-12.53-16.23-17.058C778.987,474.83,775.247,472.381,771.628,473.8Z" transform="translate(-296.895 -372.649)" fill="#2f2e41"/>
          <path id="Path_40" data-name="Path 40" d="M627.48,591.753a28.383,28.383,0,0,1-7.557-5.741c-.99-1.16-1.807-2.462-2.814-3.607a18.547,18.547,0,0,0-9.5-5.417,46.624,46.624,0,0,0-11.015-1.071,20.158,20.158,0,0,0-7.324.889,7.379,7.379,0,0,0-4.852,5.206c-.539,2.943,1.384,5.811,3.694,7.7a17.792,17.792,0,0,0,7.382,3.583,59.2,59.2,0,0,0,6.673.782c13.138,1.376,24.858,8.526,36.371,15.037q15.167,8.578,30.923,16.039a61.689,61.689,0,0,0,.518-9.492c-.054-2.369-.17-5.981-2.409-7.372-2.608-1.621-6.9-1.993-9.842-2.958a157.965,157.965,0,0,1-19.789-8Q632.607,594.738,627.48,591.753Z" transform="translate(-235.696 -413.401)" fill="#fbbebe"/>
          <ellipse id="Ellipse_7" data-name="Ellipse 7" cx="23.406" cy="23.535" rx="23.406" ry="23.535" transform="translate(425.804 57.051)" fill="#fbbebe"/>
          <path id="Path_41" data-name="Path 41" d="M766.672,516.395c-2.091,2.438-3.137,5.577-4.542,8.47-2.89,5.952-7.423,11.06-9.693,17.278-2.395,6.56-2.315,14.362-7.009,19.514a6.763,6.763,0,0,0-2.038,2.952,14.611,14.611,0,0,1-.238,2.142c-.673,1.872-3.737,1.966-4.309,3.871-.167.558-.073,1.175-.28,1.719-.47,1.232-2.1,1.421-3.185,2.159-2.272,1.541-1.814,5.124-3.435,7.346a6.167,6.167,0,0,1-5.849,2.048,21.043,21.043,0,0,1-6.071-2.267,5.525,5.525,0,0,0-2.183-.686,4.583,4.583,0,0,0-2.521.861c-4.324,2.749-6.353,8.194-6.323,13.338s1.8,10.1,3.607,14.911a6.418,6.418,0,0,0,1.193,2.221c1.434,1.516,3.93,1.271,5.834.428s3.633-2.17,5.68-2.541c3.622-.656,7.162,1.833,10.836,1.628,2.692-.15,5.074-1.715,7.311-3.229,3.57-2.417,7.206-4.894,9.83-8.324,1.607-2.1,2.785-4.494,4.186-6.738a77.827,77.827,0,0,1,5.911-7.895l13.5-16.521a26.7,26.7,0,0,0,6.465-12.56c1.283-4.4,2.575-8.856,2.8-13.439a53.471,53.471,0,0,0-.98-11.264,39.214,39.214,0,0,0-2.906-10.721C779.323,515.006,772.184,509.967,766.672,516.395Z" transform="translate(-285.248 -388.556)" fill="#2f2e41"/>
          <path id="Path_46" data-name="Path 46" d="M21.662,0A21.662,21.662,0,0,1,43.323,21.662c0,11.963-6.242,21.754-18.206,21.754-3.411,0-4.695-1.291-7.718-2.739-2.8-1.336-7.252-3.011-9.461-6.349-.49-.738-1.721-4.085-2.241-5.1C4.321,26.531,0,25.2,0,21.662A21.662,21.662,0,0,1,21.662,0Z" transform="translate(444.496 51.693)" fill="#272727"/>
          <path id="Path_47" data-name="Path 47" d="M19.2,0C29.8,0,38.4,6.723,38.4,15.015s-9.328,7.593-19.932,7.593S0,23.308,0,15.015,8.6,0,19.2,0Z" transform="translate(427.743 50.216)" fill="#272727"/>
          <ellipse id="Ellipse_11" data-name="Ellipse 11" cx="4.513" cy="5.519" rx="4.513" ry="5.519" transform="matrix(0.776, -0.631, 0.631, 0.776, 449.276, 85.148)" fill="#fbbebe"/>
          <path id="Path_43" data-name="Path 43" d="M701.628,755.845c0,10.494-6.238,14.158-13.934,14.158-.178,0-.357,0-.534-.006-.357-.008-.711-.024-1.059-.049-6.946-.491-12.341-4.344-12.341-14.1,0-10.1,12.9-22.842,13.876-23.787h0l.057-.055S701.628,745.352,701.628,755.845Z" transform="translate(-271.244 -475.44)" fill="#00ff2b"/>
          <path id="Path_44" data-name="Path 44" d="M692.349,768.4l5.1-7.12-5.109,7.9-.013.817c-.357-.008-.711-.024-1.059-.049l.549-10.5,0-.082.009-.014.053-.993-5.122-7.922,5.138,7.178.013.21.414-7.932-4.385-8.186,4.439,6.794.432-16.446v0l-.072,12.968,4.366-5.141-4.383,6.259-.115,7.1,4.077-6.816-4.094,7.861-.064,3.949,5.916-9.488-5.939,10.865Z" transform="translate(-276.406 -475.44)" fill="#3f3d56"/>
          <path id="Path_48" data-name="Path 48" d="M475.74,45.3l3.683-1.927,6.239,6.764-3.829,1.914Z" fill="url(#linear-gradient-5)"/>
          <path id="Path_49" data-name="Path 49" d="M480.064,43.033l-2.018-3.889-2.286-4.269s-.426-7.788,3.444-12.273c5.212-6.041,16.931-3.812,28.822,4.418,8.848,6.123,12.623,16.41,15.358,27.139s4.418,26.719,0,36.607,4,15.779,4,15.779-13.97-1.336-23.563-10.1c-7.2-6.573-7.995-14.1-9.257-26.087a34.682,34.682,0,0,0-9.888-21.038Z" transform="matrix(0.966, -0.259, 0.259, 0.966, 10.81, 132.871)" fill="#272727"/>
        </g>
        <path id="Path_45" data-name="Path 45" d="M1349.3,518.372l21.047,28.978,86.323-35.078-43.619-88.458Z" transform="translate(-58.835 -5.656)" fill="url(#linear-gradient-6)"/>
      </g>
    </g>
  </g>
</svg>
